<svg xmlns="http://www.w3.org/2000/svg" viewBox="0 0 64 64">
  <defs>
    <linearGradient id="flameGrad" x1="0%" y1="100%" x2="0%" y2="0%">
      <stop offset="0%" stop-color="#D62828"/>
      <stop offset="55%" stop-color="#FF5A1F"/>
      <stop offset="100%" stop-color="#FFB627"/>
    </linearGradient>
  </defs>
  <rect width="64" height="64" rx="14" fill="#12100E"/>
  <path fill="url(#flameGrad)" d="M32 6c2 8-8 12-8 21 0 4 2 7 5 9-3-6 0-10 3-13 1 4 4 6 4 10 0 2-1 4-3 6 8-2 13-9 13-17 0-9-7-13-8-19-1 5-4 7-4 11-2-3-3-4-2-8z"/>
  <path fill="#12100E" opacity=".35" d="M32 26c1 3-3 5-3 9 0 2 1 3 2 4-1-3 0-5 1-6 0 2 2 3 2 5 0 1 0 2-1 3 4-1 6-4 6-8 0-4-3-6-4-9-.4 2-2 3-2 5-1-1-1-2-1-3z"/>
</svg>
